<svg xmlns="http://www.w3.org/2000/svg" width="58" height="29" viewBox="0 0 58 29">
  <metadata><?xpacket begin="﻿" id="W5M0MpCehiHzreSzNTczkc9d"?>
<x:xmpmeta xmlns:x="adobe:ns:meta/" x:xmptk="Adobe XMP Core 5.6-c138 79.159824, 2016/09/14-01:09:01        ">
   <rdf:RDF xmlns:rdf="http://www.w3.org/1999/02/22-rdf-syntax-ns#">
      <rdf:Description rdf:about=""/>
   </rdf:RDF>
</x:xmpmeta>
                                                                                                    
                                                                                                    
                                                                                                    
                                                                                                    
                                                                                                    
                                                                                                    
                                                                                                    
                                                                                                    
                                                                                                    
                                                                                                    
                                                                                                    
                                                                                                    
                                                                                                    
                                                                                                    
                                                                                                    
                                                                                                    
                                                                                                    
                                                                                                    
                                                                                                    
                                                                                                    
                           
<?xpacket end="w"?></metadata>
<defs>
    <style>
      .cls-1 {
        fill: #fff;
        fill-rule: evenodd;
        opacity: 0.8;
      }
    </style>
  </defs>
  <path class="cls-1" d="M656.079,30.107H646v-5.8h26.989l-2.393,5.8h-8.425V52.9h-6.092V30.107Zm39.42,6.751-3.059,4.286h6.944v5.247a10.85,10.85,0,0,1-6.556,2.123c-5.547,0-9.233-4.246-9.233-10.013V38.42c0-5.367,3.8-9.894,8.806-9.894a10.458,10.458,0,0,1,7.6,3l3.026-3.725A14.39,14.39,0,0,0,692.6,24a13.606,13.606,0,0,0-10.9,5.273L679.568,24.1H673.95L662.084,52.9h6.21L669.9,48.83h0l3.109-7.9H673l3.679-9.271,2.014,5.077a15.83,15.83,0,0,0-.1,1.765v0.08c0,8.171,5.586,14.419,14.082,14.419A17.008,17.008,0,0,0,704,48.634V36.858h-8.5Z" transform="translate(-646 -24)"/>
</svg>
